#Comment line ignore any data following # character 
#Hierarchical Translation and Rotation (.htr) file 
[Header]	
#Header keywords are followed by a single value 
FileType HTR		#Single word string
DataType HTRS		#Translation followed by rotation and scale data
FileVersion 1		#integer
NumSegments 84		#integer
NumFrames 2		#integer
DataFrameRate 30		#integer, data frame rate in this file
EulerRotationOrder ZYX
CalibrationUnits mm
RotationUnits Degrees
GlobalAxisofGravity Y
BoneLengthAxis Y
ScaleFactor 1.00
[SegmentNames&Hierarchy]
#CHILD	PARENT
MASTER GLOBAL
root MASTER
chest root
L_mid_tent01 root
R_mid_tent01 root
spine01 root
Bip01_Neck chest
L_humerus chest
R_humerus chest
weapon_bone chest
Bip01_Head Bip01_Neck
eye_left_bone Bip01_Head
eye_right_bone Bip01_Head
L_forearm L_humerus
L_front_hand L_forearm
L_weapon_bone L_forearm
L_front_hand01_01 L_front_hand
L_front_hand02_01 L_front_hand
L_front_hand03_01 L_front_hand
L_front_hand01_02 L_front_hand01_01
L_front_hand02_02 L_front_hand02_01
L_front_hand03_02 L_front_hand03_01
R_forearm R_humerus
R_front_hand R_forearm
R_weapon_bone R_forearm
R_front_hand01_01 R_front_hand
R_front_hand02_01 R_front_hand
R_front_hand03_01 R_front_hand
R_front_hand01_02 R_front_hand01_01
R_front_hand02_02 R_front_hand02_01
R_front_hand03_02 R_front_hand03_01
null_rope01_connect L_mid_tent01
Rope1_Seg01 null_rope01_connect
Rope1_Seg02 Rope1_Seg01
Rope1_Seg03 Rope1_Seg02
Rope1_Seg04 Rope1_Seg03
Rope1_Seg05 Rope1_Seg04
Rope1_Seg06 Rope1_Seg05
Rope1_Seg07 Rope1_Seg06
Rope1_Seg09 Rope1_Seg07
L_mid_hand01 Rope1_Seg09
L_mid_hand02 Rope1_Seg09
L_mid_hand03 Rope1_Seg09
null_rope02_connect R_mid_tent01
Rope2_Seg01 null_rope02_connect
Rope2_Seg02 Rope2_Seg01
Rope2_Seg03 Rope2_Seg02
Rope2_Seg04 Rope2_Seg03
Rope2_Seg05 Rope2_Seg04
Rope2_Seg06 Rope2_Seg05
Rope2_Seg07 Rope2_Seg06
Rope2_Seg09 Rope2_Seg07
R_mid_hand01 Rope2_Seg09
R_mid_hand02 Rope2_Seg09
R_mid_hand03 Rope2_Seg09
spine02 spine01
spine03 spine02
pelvis spine03
null_rope03_connect pelvis
null_rope04_connect pelvis
Rope3_Seg01 null_rope03_connect
Rope3_Seg02 Rope3_Seg01
Rope3_Seg03 Rope3_Seg02
Rope3_Seg04 Rope3_Seg03
Rope3_Seg05 Rope3_Seg04
Rope3_Seg06 Rope3_Seg05
Rope3_Seg07 Rope3_Seg06
Rope3_Seg08 Rope3_Seg07
Rope3_Seg09 Rope3_Seg08
R_rear_hand01 Rope3_Seg09
R_rear_hand02 Rope3_Seg09
R_rear_hand03 Rope3_Seg09
Rope4_Seg01 null_rope04_connect
Rope4_Seg02 Rope4_Seg01
Rope4_Seg03 Rope4_Seg02
Rope4_Seg04 Rope4_Seg03
Rope4_Seg05 Rope4_Seg04
Rope4_Seg06 Rope4_Seg05
Rope4_Seg07 Rope4_Seg06
Rope4_Seg08 Rope4_Seg07
Rope4_Seg09 Rope4_Seg08
L_rear_hand01 Rope4_Seg09
L_rear_hand02 Rope4_Seg09
L_rear_hand03 Rope4_Seg09
[BasePosition]
#SegmentName Tx, Ty, Tz, Rx, Ry, Rz, BoneLength
MASTER 0.000000 0.000000 0.000000 -90.000000 0.000000 0.000000 10.000000 
root 0.000000 0.000000 0.000000 0.000000 0.000000 0.000000 10.000000 
chest 0.000000 0.000000 0.000000 0.000000 0.000000 0.000000 10.000000 
L_mid_tent01 0.000000 0.000000 0.000000 0.000000 0.000000 0.000000 10.000000 
R_mid_tent01 0.000000 0.000000 0.000000 0.000000 0.000000 0.000000 10.000000 
spine01 0.000000 0.000000 0.000000 0.000000 0.000000 0.000000 10.000000 
Bip01_Neck 0.000000 0.000000 0.000000 0.000000 0.000000 0.000000 10.000000 
L_humerus 0.000000 0.000000 0.000000 0.000000 0.000000 0.000000 10.000000 
R_humerus 0.000000 0.000000 0.000000 0.000000 0.000000 0.000000 10.000000 
weapon_bone 0.000000 0.000000 0.000000 0.000000 0.000000 0.000000 10.000000 
Bip01_Head 0.000000 0.000000 0.000000 0.000000 0.000000 0.000000 10.000000 
eye_left_bone 0.000000 0.000000 0.000000 0.000000 0.000000 0.000000 10.000000 
eye_right_bone 0.000000 0.000000 0.000000 0.000000 0.000000 0.000000 10.000000 
L_forearm 0.000000 0.000000 0.000000 0.000000 0.000000 0.000000 10.000000 
L_front_hand 0.000000 0.000000 0.000000 0.000000 0.000000 0.000000 10.000000 
L_weapon_bone 0.000000 0.000000 0.000000 0.000000 0.000000 0.000000 10.000000 
L_front_hand01_01 0.000000 0.000000 0.000000 0.000000 0.000000 0.000000 10.000000 
L_front_hand02_01 0.000000 0.000000 0.000000 0.000000 0.000000 0.000000 10.000000 
L_front_hand03_01 0.000000 0.000000 0.000000 0.000000 0.000000 0.000000 10.000000 
L_front_hand01_02 0.000000 0.000000 0.000000 0.000000 0.000000 0.000000 10.000000 
L_front_hand02_02 0.000000 0.000000 0.000000 0.000000 0.000000 0.000000 10.000000 
L_front_hand03_02 0.000000 0.000000 0.000000 0.000000 0.000000 0.000000 10.000000 
R_forearm 0.000000 0.000000 0.000000 0.000000 0.000000 0.000000 10.000000 
R_front_hand 0.000000 0.000000 0.000000 0.000000 0.000000 0.000000 10.000000 
R_weapon_bone 0.000000 0.000000 0.000000 0.000000 0.000000 0.000000 10.000000 
R_front_hand01_01 0.000000 0.000000 0.000000 0.000000 0.000000 0.000000 10.000000 
R_front_hand02_01 0.000000 0.000000 0.000000 0.000000 0.000000 0.000000 10.000000 
R_front_hand03_01 0.000000 0.000000 0.000000 0.000000 0.000000 0.000000 10.000000 
R_front_hand01_02 0.000000 0.000000 0.000000 0.000000 0.000000 0.000000 10.000000 
R_front_hand02_02 0.000000 0.000000 0.000000 0.000000 0.000000 0.000000 10.000000 
R_front_hand03_02 0.000000 0.000000 0.000000 0.000000 0.000000 0.000000 10.000000 
null_rope01_connect 0.000000 0.000000 0.000000 0.000000 0.000000 0.000000 10.000000 
Rope1_Seg01 0.000000 0.000000 0.000000 0.000000 0.000000 0.000000 10.000000 
Rope1_Seg02 0.000000 0.000000 0.000000 0.000000 0.000000 0.000000 10.000000 
Rope1_Seg03 0.000000 0.000000 0.000000 0.000000 0.000000 0.000000 10.000000 
Rope1_Seg04 0.000000 0.000000 0.000000 0.000000 0.000000 0.000000 10.000000 
Rope1_Seg05 0.000000 0.000000 0.000000 0.000000 0.000000 0.000000 10.000000 
Rope1_Seg06 0.000000 0.000000 0.000000 0.000000 0.000000 0.000000 10.000000 
Rope1_Seg07 0.000000 0.000000 0.000000 0.000000 0.000000 0.000000 10.000000 
Rope1_Seg09 0.000000 0.000000 0.000000 0.000000 0.000000 0.000000 10.000000 
L_mid_hand01 0.000000 0.000000 0.000000 0.000000 0.000000 0.000000 10.000000 
L_mid_hand02 0.000000 0.000000 0.000000 0.000000 0.000000 0.000000 10.000000 
L_mid_hand03 0.000000 0.000000 0.000000 0.000000 0.000000 0.000000 10.000000 
null_rope02_connect 0.000000 0.000000 0.000000 0.000000 0.000000 0.000000 10.000000 
Rope2_Seg01 0.000000 0.000000 0.000000 0.000000 0.000000 0.000000 10.000000 
Rope2_Seg02 0.000000 0.000000 0.000000 0.000000 0.000000 0.000000 10.000000 
Rope2_Seg03 0.000000 0.000000 0.000000 0.000000 0.000000 0.000000 10.000000 
Rope2_Seg04 0.000000 0.000000 0.000000 0.000000 0.000000 0.000000 10.000000 
Rope2_Seg05 0.000000 0.000000 0.000000 0.000000 0.000000 0.000000 10.000000 
Rope2_Seg06 0.000000 0.000000 0.000000 0.000000 0.000000 0.000000 10.000000 
Rope2_Seg07 0.000000 0.000000 0.000000 0.000000 0.000000 0.000000 10.000000 
Rope2_Seg09 0.000000 0.000000 0.000000 0.000000 0.000000 0.000000 10.000000 
R_mid_hand01 0.000000 0.000000 0.000000 0.000000 0.000000 0.000000 10.000000 
R_mid_hand02 0.000000 0.000000 0.000000 0.000000 0.000000 0.000000 10.000000 
R_mid_hand03 0.000000 0.000000 0.000000 0.000000 0.000000 0.000000 10.000000 
spine02 0.000000 0.000000 0.000000 0.000000 0.000000 0.000000 10.000000 
spine03 0.000000 0.000000 0.000000 0.000000 0.000000 0.000000 10.000000 
pelvis 0.000000 0.000000 0.000000 0.000000 0.000000 0.000000 10.000000 
null_rope03_connect 0.000000 0.000000 0.000000 0.000000 0.000000 0.000000 10.000000 
null_rope04_connect 0.000000 0.000000 0.000000 0.000000 0.000000 0.000000 10.000000 
Rope3_Seg01 0.000000 0.000000 0.000000 0.000000 0.000000 0.000000 10.000000 
Rope3_Seg02 0.000000 0.000000 0.000000 0.000000 0.000000 0.000000 10.000000 
Rope3_Seg03 0.000000 0.000000 0.000000 0.000000 0.000000 0.000000 10.000000 
Rope3_Seg04 0.000000 0.000000 0.000000 0.000000 0.000000 0.000000 10.000000 
Rope3_Seg05 0.000000 0.000000 0.000000 0.000000 0.000000 0.000000 10.000000 
Rope3_Seg06 0.000000 0.000000 0.000000 0.000000 0.000000 0.000000 10.000000 
Rope3_Seg07 0.000000 0.000000 0.000000 0.000000 0.000000 0.000000 10.000000 
Rope3_Seg08 0.000000 0.000000 0.000000 0.000000 0.000000 0.000000 10.000000 
Rope3_Seg09 0.000000 0.000000 0.000000 0.000000 0.000000 0.000000 10.000000 
R_rear_hand01 0.000000 0.000000 0.000000 0.000000 0.000000 0.000000 10.000000 
R_rear_hand02 0.000000 0.000000 0.000000 0.000000 0.000000 0.000000 10.000000 
R_rear_hand03 0.000000 0.000000 0.000000 0.000000 0.000000 0.000000 10.000000 
Rope4_Seg01 0.000000 0.000000 0.000000 0.000000 0.000000 0.000000 10.000000 
Rope4_Seg02 0.000000 0.000000 0.000000 0.000000 0.000000 0.000000 10.000000 
Rope4_Seg03 0.000000 0.000000 0.000000 0.000000 0.000000 0.000000 10.000000 
Rope4_Seg04 0.000000 0.000000 0.000000 0.000000 0.000000 0.000000 10.000000 
Rope4_Seg05 0.000000 0.000000 0.000000 0.000000 0.000000 0.000000 10.000000 
Rope4_Seg06 0.000000 0.000000 0.000000 0.000000 0.000000 0.000000 10.000000 
Rope4_Seg07 0.000000 0.000000 0.000000 0.000000 0.000000 0.000000 10.000000 
Rope4_Seg08 0.000000 0.000000 0.000000 0.000000 0.000000 0.000000 10.000000 
Rope4_Seg09 0.000000 0.000000 0.000000 0.000000 0.000000 0.000000 10.000000 
L_rear_hand01 0.000000 0.000000 0.000000 0.000000 0.000000 0.000000 10.000000 
L_rear_hand02 0.000000 0.000000 0.000000 0.000000 0.000000 0.000000 10.000000 
L_rear_hand03 0.000000 0.000000 0.000000 0.000000 0.000000 0.000000 10.000000 
#Beginning of Data. Separated by tabs
#Fr	Tx	Ty	Tz	Rx	Ry	Rz	SF
[MASTER]
1 0.000000 0.000000 0.000000 0.001660 0.001660 0.001660 0.000000
2 0.000000 0.000000 0.000000 0.001660 0.001660 0.001660 0.000000
[root]
1 1.479914 -14.348909 553.436890 -88.581917 -10.449947 -90.639961 553.624817
2 29.505512 -8.415982 576.283142 -88.581917 -10.449947 -90.639961 577.099365
[chest]
1 -84.512650 -34.090519 0.000000 -2.029104 3.785990 -179.004639 91.129311
2 -84.512650 -34.090519 0.000000 -1.830322 3.677132 174.330276 91.129311
[L_mid_tent01]
1 27.299288 22.178457 -249.918533 -39.430737 47.345726 73.872047 252.381470
2 27.299284 22.178480 -249.918533 -40.433632 47.816269 65.916229 252.381485
[R_mid_tent01]
1 23.228794 24.509907 226.238495 -143.122238 -42.243610 60.638706 228.744751
2 23.228794 24.509907 226.238495 -153.289749 -36.217129 75.537155 228.744751
[spine01]
1 -0.361383 -0.195265 0.000000 0.001906 0.001370 18.574818 0.410763
2 -0.361383 -0.195265 0.000000 0.001907 0.001369 18.671389 0.410763
[Bip01_Neck]
1 165.484543 71.581718 0.000119 176.643677 -1.657967 43.431911 180.302734
2 165.484543 71.581718 0.000119 176.643677 -1.657967 43.431911 180.302734
[L_humerus]
1 -13.983130 -135.272980 -120.471481 128.503647 59.124809 -148.878128 181.680161
2 -13.983130 -135.272980 -120.471481 133.666412 55.932018 -148.109970 181.680161
[R_humerus]
1 -13.983309 -135.273102 125.287651 -130.798828 -41.129208 -154.183853 184.909012
2 -13.983309 -135.273102 125.287651 -158.451462 -67.269814 -158.557938 184.909012
[weapon_bone]
1 235.964890 -300.705902 0.000000 0.000000 -89.951546 -128.212341 382.234833
2 235.964890 -300.705902 0.000000 0.000000 -89.951546 -128.212341 382.234833
[Bip01_Head]
1 213.327072 186.042252 7.559213 1.938589 3.724703 -19.795940 283.155945
2 213.330231 186.033035 7.677302 1.392115 4.495267 -21.982405 283.155457
[eye_left_bone]
1 -24.626970 125.451866 -64.772606 0.000000 -90.000000 -99.840431 143.318359
2 -24.626970 125.451866 -64.772606 0.000000 -90.000000 -99.840431 143.318359
[eye_right_bone]
1 -24.626970 125.451866 64.327362 0.000000 -89.965736 80.156380 143.117676
2 -24.626970 125.451866 64.327362 0.000000 -89.965736 80.156380 143.117676
[L_forearm]
1 322.776093 0.000000 -0.000119 0.000719 -0.002234 -125.690590 322.776093
2 322.776093 0.000000 -0.000119 0.000474 -0.002299 -113.318283 322.776093
[L_front_hand]
1 241.149185 -0.042021 -3.300071 -178.667953 -1.835447 -27.422350 241.171753
2 241.149185 -0.042021 -3.300071 179.060989 -1.834483 -27.420664 241.171753
[L_weapon_bone]
1 156.183838 0.000000 0.000000 0.000014 0.000007 0.000001 156.183838
2 156.183838 0.000000 0.000000 0.000014 0.000007 0.000001 156.183838
[L_front_hand01_01]
1 86.095154 20.947098 -0.655860 -0.366594 -0.477154 75.385574 88.609184
2 86.095154 20.947098 -0.655860 -0.366594 -0.477154 75.385582 88.609184
[L_front_hand02_01]
1 86.935165 -11.437475 24.513514 154.399796 -59.883835 -61.369587 91.046425
2 86.935165 -11.437475 24.513514 154.399811 -59.883835 -61.369587 91.046425
[L_front_hand03_01]
1 86.637497 -14.123976 -20.424902 -153.913849 58.118122 -62.702866 90.126129
2 86.637497 -14.123976 -20.424902 -153.913849 58.118122 -62.702866 90.126129
[L_front_hand01_02]
1 71.020905 -0.000179 0.000030 0.000334 -0.002323 -106.379684 71.020905
2 71.020905 -0.000179 0.000030 0.000334 -0.002323 -106.379684 71.020905
[L_front_hand02_02]
1 71.020927 -0.000119 0.000060 0.000334 -0.002323 -106.379684 71.020927
2 71.020927 -0.000119 0.000060 0.000334 -0.002323 -106.379684 71.020927
[L_front_hand03_02]
1 71.020905 -0.000060 0.000060 0.000334 -0.002323 -106.379684 71.020905
2 71.020905 -0.000060 0.000060 0.000334 -0.002323 -106.379684 71.020905
[R_forearm]
1 322.776428 -0.000060 0.000030 0.183110 0.110930 -121.475273 322.776428
2 322.776428 -0.000060 0.000030 0.204406 0.053869 -105.599113 322.776428
[R_front_hand]
1 238.847015 -0.006795 2.210259 -2.635298 -10.645461 -26.312506 238.857239
2 238.847015 -0.006795 2.210259 -30.808292 -10.644775 -26.311966 238.857239
[R_weapon_bone]
1 155.664093 0.002503 -0.000030 0.003487 0.001180 -90.988930 155.664078
2 155.664093 0.002503 -0.000030 0.003487 0.001180 -90.988930 155.664078
[R_front_hand01_01]
1 87.624611 14.231146 22.918642 -154.633499 -59.950619 61.746044 91.683487
2 87.624611 14.231146 22.918642 -154.633499 -59.950619 61.746044 91.683487
[R_front_hand02_01]
1 89.356956 14.367283 -19.491137 154.602661 58.302849 63.744389 92.579636
2 89.356956 14.367283 -19.491137 154.602676 58.302864 63.744400 92.579636
[R_front_hand03_01]
1 87.286232 -22.307278 -0.143439 0.162155 -0.423168 -75.767921 90.091743
2 87.286232 -22.307278 -0.143439 0.162155 -0.423168 -75.767921 90.091743
[R_front_hand01_02]
1 71.020905 0.000060 0.000119 0.002323 -0.000334 106.381714 71.020905
2 71.020905 0.000060 0.000119 0.002323 -0.000334 106.381714 71.020905
[R_front_hand02_02]
1 71.020844 -0.000030 -0.000119 0.002323 -0.000334 106.381714 71.020836
2 71.020844 -0.000030 -0.000119 0.002323 -0.000334 106.381714 71.020836
[R_front_hand03_02]
1 71.020905 0.000000 0.000030 0.002323 -0.000334 106.381714 71.020905
2 71.020905 0.000000 0.000030 0.002323 -0.000334 106.381714 71.020905
[null_rope01_connect]
1 328.732483 0.000000 -0.000238 158.291809 -32.991886 -149.479141 328.732483
2 328.732483 0.000000 -0.000238 165.567673 -32.183163 -149.586853 328.732483
[Rope1_Seg01]
1 -0.000038 -0.000067 0.000000 118.553986 -51.386459 155.257523 0.000077
2 -0.000035 -0.000066 0.000004 120.351120 -46.486820 150.697693 0.000075
[Rope1_Seg02]
1 139.999863 -0.000179 0.000000 -2.408477 -8.338644 -3.692194 139.999863
2 139.999863 -0.000179 0.000000 -2.977855 -9.303592 -5.138601 139.999863
[Rope1_Seg03]
1 139.999924 0.000060 -0.000060 -7.329035 -23.034130 -12.179786 139.999924
2 139.999924 0.000060 -0.000060 -7.328503 -24.224077 -16.341482 139.999924
[Rope1_Seg04]
1 139.999924 -0.000060 -0.000119 -5.460186 -42.935001 -42.448254 139.999924
2 139.999924 -0.000060 -0.000119 -3.522018 -35.580833 -40.061836 139.999924
[Rope1_Seg05]
1 139.999832 0.000119 -0.000060 -3.017786 -10.710775 -18.422428 139.999832
2 139.999832 0.000119 -0.000060 -1.696785 -8.875265 -16.164148 139.999832
[Rope1_Seg06]
1 139.999954 0.000119 -0.000060 -0.879650 -5.288383 -11.916508 139.999954
2 139.999954 0.000119 -0.000060 0.008489 -5.004152 -14.467546 139.999954
[Rope1_Seg07]
1 139.999985 0.000060 0.000000 1.870216 -8.367694 -21.096859 139.999985
2 139.999985 0.000060 0.000000 3.974161 -7.444232 -22.478874 139.999985
[Rope1_Seg09]
1 121.602913 0.000119 -0.000089 -89.793175 -1.359789 0.847147 121.602913
2 121.602913 0.000119 -0.000089 -89.793175 -1.359789 0.847147 121.602913
[L_mid_hand01]
1 103.859421 1.038730 8.195221 109.056198 -40.604698 -13.201401 104.187431
2 103.859421 1.038730 8.195221 109.056198 -40.604698 -13.201401 104.187431
[L_mid_hand02]
1 105.572853 -4.139662 -10.864139 -146.713593 31.476528 -37.902313 106.211075
2 105.572853 -4.139662 -10.864139 -146.713593 31.476528 -37.902313 106.211075
[L_mid_hand03]
1 104.641464 17.579376 -3.913581 -14.267233 12.322316 43.898396 106.179977
2 104.641464 17.579376 -3.913581 -14.267233 12.322316 43.898396 106.179977
[null_rope02_connect]
1 328.732849 0.000179 -0.000119 171.558975 34.879673 -33.671223 328.732849
2 328.732849 0.000179 -0.000119 164.508118 44.665886 -31.534891 328.732849
[Rope2_Seg01]
1 -0.000038 0.000076 0.000114 -51.949188 -33.635845 51.432110 0.000143
2 -0.000034 0.000077 0.000111 -48.412331 -35.166740 44.131611 0.000140
[Rope2_Seg02]
1 139.999741 -0.000060 -0.000119 1.275758 2.050086 4.527222 139.999756
2 139.999741 -0.000060 -0.000119 0.909061 2.218327 5.175535 139.999756
[Rope2_Seg03]
1 140.000107 0.000030 0.000000 2.430693 3.909759 8.208919 140.000107
2 140.000107 0.000030 0.000000 2.300972 5.062389 11.455975 140.000107
[Rope2_Seg04]
1 139.999802 0.000000 -0.000060 6.833350 10.939994 20.641397 139.999802
2 139.999802 0.000000 -0.000060 12.558360 20.279554 42.942760 139.999802
[Rope2_Seg05]
1 139.999985 -0.000060 0.000119 13.229813 24.557882 40.715179 139.999985
2 139.999985 -0.000060 0.000119 7.360339 20.007959 39.440910 139.999985
[Rope2_Seg06]
1 139.999893 -0.000030 -0.000119 1.244718 9.521564 19.866961 139.999893
2 139.999893 -0.000030 -0.000119 0.595901 0.269200 19.800409 139.999893
[Rope2_Seg07]
1 139.999893 0.000060 -0.000060 0.744139 3.063417 18.240942 139.999893
2 139.999893 0.000060 -0.000060 2.795784 2.557627 17.605291 139.999893
[Rope2_Seg09]
1 121.338966 0.000089 -0.000060 33.793236 -1.359788 -0.847141 121.338966
2 121.338966 0.000089 -0.000060 33.793236 -1.359788 -0.847141 121.338966
[R_mid_hand01]
1 104.680779 11.144459 -10.335981 -37.204079 31.906813 37.576260 105.778534
2 104.680779 11.144459 -10.335981 -37.204079 31.906813 37.576260 105.778534
[R_mid_hand02]
1 104.070427 2.443552 8.231699 70.367462 -42.427391 14.067809 104.424065
2 104.070427 2.443552 8.231699 70.367462 -42.427387 14.067810 104.424065
[R_mid_hand03]
1 106.028137 -11.221827 -5.996406 -169.893616 12.226661 -47.211018 106.788818
2 106.028137 -11.221827 -5.996406 -169.893616 12.226661 -47.211018 106.788818
[spine02]
1 129.756927 0.001550 0.000119 -0.402584 -4.038200 -2.151842 129.756927
2 129.756927 0.001550 0.000119 -0.381517 -4.040380 -2.451095 129.756927
[spine03]
1 78.613983 0.083961 -4.898950 1.438624 4.024599 9.774063 78.766518
2 78.613983 0.083901 -4.898951 1.451588 4.019983 9.960292 78.766518
[pelvis]
1 169.435242 0.051022 0.000000 -0.014061 -0.191162 0.530875 169.435257
2 169.435242 0.051022 0.000000 -0.015329 -0.190981 0.907703 169.435257
[null_rope03_connect]
1 -1.257226 -2.466202 137.391083 -12.925467 -88.214363 86.711609 137.418976
2 -1.257226 -2.466202 137.391083 -12.722698 -88.193985 86.147415 137.418976
[null_rope04_connect]
1 -1.259640 -2.480268 -137.844437 -12.925467 -88.214363 86.711609 137.872513
2 -1.259640 -2.480268 -137.844437 -12.722698 -88.193985 86.147415 137.872513
[Rope3_Seg01]
1 0.000010 0.000038 -0.000114 -159.683975 -38.925472 -37.989754 0.000121
2 0.000010 0.000038 -0.000114 -158.150314 -35.668335 -36.258377 0.000121
[Rope3_Seg02]
1 139.999924 -0.000119 0.000060 10.752733 -11.846487 4.258308 139.999924
2 139.999924 -0.000119 0.000060 12.458180 -12.572488 6.136515 139.999924
[Rope3_Seg03]
1 139.999924 -0.000119 0.000119 18.421631 -20.038374 12.392073 139.999924
2 139.999924 -0.000119 0.000119 17.521795 -19.069750 15.894351 139.999924
[Rope3_Seg04]
1 139.999924 0.000119 0.000000 13.542642 -17.365301 21.431709 139.999924
2 139.999924 0.000119 0.000000 10.043951 -12.889236 20.923044 139.999924
[Rope3_Seg05]
1 139.999924 -0.000238 0.000060 5.191982 -7.277408 20.986309 139.999924
2 139.999924 -0.000238 0.000060 3.708961 -6.916954 25.025526 139.999924
[Rope3_Seg06]
1 139.999893 -0.000119 -0.000060 -2.772015 -6.443265 40.074646 139.999893
2 139.999893 -0.000119 -0.000060 -4.773542 -5.377141 36.211174 139.999893
[Rope3_Seg07]
1 139.999771 0.000060 -0.000119 -9.424659 -4.651278 24.598101 139.999771
2 139.999771 0.000060 -0.000119 -6.488707 -3.718335 16.584061 139.999771
[Rope3_Seg08]
1 139.999985 -0.000060 0.000000 -5.259163 -3.117931 8.721120 139.999985
2 139.999985 -0.000060 0.000000 -3.614003 -2.343597 6.894657 139.999985
[Rope3_Seg09]
1 90.185997 -0.000179 -0.000060 89.793228 -1.359877 -0.847183 90.185997
2 90.185997 -0.000179 -0.000060 89.793228 -1.359877 -0.847183 90.185997
[R_rear_hand01]
1 103.366196 -6.073594 -10.757982 -164.755127 19.627697 -40.352161 104.101845
2 103.366196 -6.073594 -10.757982 -164.755127 19.627695 -40.352161 104.101845
[R_rear_hand02]
1 100.509819 12.039542 -7.992327 -30.792652 24.782448 38.141541 101.543350
2 100.509819 12.039542 -7.992327 -30.792652 24.782448 38.141541 101.543350
[R_rear_hand03]
1 101.539970 5.215704 5.435467 82.448349 -41.048256 8.840378 101.819031
2 101.539970 5.215704 5.435467 82.448349 -41.048256 8.840378 101.819031
[Rope4_Seg01]
1 -0.000019 -0.000076 -0.000153 69.038231 -29.171585 -141.178375 0.000172
2 -0.000019 -0.000074 -0.000153 54.237591 -12.046168 -146.020050 0.000171
[Rope4_Seg02]
1 139.999985 0.000060 0.000119 -6.408147 2.749058 -6.582075 139.999985
2 139.999985 0.000060 0.000119 -10.633905 4.989485 -9.386290 139.999985
[Rope4_Seg03]
1 139.999924 0.000000 -0.000238 -11.836673 6.449323 -11.780402 139.999924
2 139.999924 0.000000 -0.000238 -13.471934 9.051000 -12.161676 139.999924
[Rope4_Seg04]
1 139.999985 0.000000 0.000119 -20.129864 16.532169 -21.657188 139.999985
2 139.999985 0.000000 0.000119 -12.632975 10.572444 -13.246708 139.999985
[Rope4_Seg05]
1 139.999802 -0.000060 -0.000119 -13.504020 27.529245 -19.203735 139.999802
2 139.999802 -0.000060 -0.000119 -5.695415 17.747850 -4.457122 139.999802
[Rope4_Seg06]
1 139.999924 0.000000 0.000060 -1.654531 33.102299 -13.344581 139.999924
2 139.999924 0.000000 0.000060 3.069474 42.782822 5.790941 139.999924
[Rope4_Seg07]
1 139.999802 0.000000 0.000000 5.270936 16.996218 -7.301237 139.999802
2 139.999802 0.000000 0.000000 10.005811 28.306776 1.092526 139.999802
[Rope4_Seg08]
1 139.999924 0.000000 0.000119 2.150414 6.537849 -3.686303 139.999924
2 139.999924 0.000000 0.000119 6.754954 10.421754 -1.530811 139.999924
[Rope4_Seg09]
1 90.185791 0.000060 0.000060 -135.617828 2.228885 0.850567 90.185791
2 90.185791 0.000060 0.000060 -135.617828 2.228885 0.850567 90.185791
[L_rear_hand01]
1 101.696655 -8.392275 -7.654577 -31.684452 -23.583008 144.025742 102.329041
2 101.696655 -8.392275 -7.654577 -31.684452 -23.583008 144.025742 102.329041
[L_rear_hand02]
1 102.726799 -1.568258 5.773216 82.701553 38.753956 171.553619 102.900848
2 102.726799 -1.568258 5.773216 82.701569 38.753960 171.553619 102.900848
[L_rear_hand03]
1 104.552910 9.721220 -10.420293 -163.975403 -19.004421 -142.009338 105.519653
2 104.552910 9.721220 -10.420293 -163.975403 -19.004421 -142.009338 105.519653
